<svg width="253" height="44" viewBox="0 0 253 44" fill="none" xmlns="http://www.w3.org/2000/svg">
<path d="M5.1122 43.4878C3.94524 43.4878 2.91219 43.4209 2.01306 43.287C1.13305 43.1722 0.520877 43.0765 0.176527 43V31.1773C0.520877 31.2539 0.922618 31.3304 1.38175 31.4069C1.86001 31.4643 2.35741 31.493 2.87393 31.493C4.27046 31.493 5.40873 31.2156 6.28873 30.6608C7.16873 30.0869 7.8383 29.2069 8.29744 28.0208C8.7757 26.8156 9.07222 25.266 9.18701 23.3721L10.4496 1.59197H52.0298V43H37.6245V12.2381H23.2192L22.2436 26.5286C21.9758 30.3165 21.2297 33.473 20.0053 35.9982C18.781 38.5043 16.9636 40.3791 14.5531 41.6226C12.1427 42.8661 8.9957 43.4878 5.1122 43.4878ZM61.2871 43.4591C59.2784 43.4591 57.6236 42.847 56.3227 41.6226C55.041 40.3982 54.4001 38.8774 54.4001 37.06C54.4001 35.2426 55.0505 33.7217 56.3514 32.4973C57.6523 31.2539 59.2975 30.6321 61.2871 30.6321C63.3149 30.6321 64.9697 31.2539 66.2515 32.4973C67.5523 33.7217 68.2028 35.2426 68.2028 37.06C68.2028 38.8774 67.5523 40.3982 66.2515 41.6226C64.9506 42.847 63.2958 43.4591 61.2871 43.4591ZM70.5156 43V1.59197H84.4618V23.9173H90.3444L78.4931 29.886L105.984 1.59197H118.151V43H104.233V20.359H98.0923L110.145 14.3329L82.6827 43H70.5156ZM127.379 43.4591C125.371 43.4591 123.716 42.847 122.415 41.6226C121.133 40.3982 120.492 38.8774 120.492 37.06C120.492 35.2426 121.143 33.7217 122.444 32.4973C123.744 31.2539 125.39 30.6321 127.379 30.6321C129.407 30.6321 131.062 31.2539 132.344 32.4973C133.644 33.7217 134.295 35.2426 134.295 37.06C134.295 38.8774 133.644 40.3982 132.344 41.6226C131.043 42.847 129.388 43.4591 127.379 43.4591ZM159.019 43.8322C153.682 43.8322 149.062 42.9617 145.159 41.2209C141.276 39.48 138.282 37.0026 136.177 33.7887C134.073 30.5747 133.021 26.7391 133.021 22.2816V22.2242C133.021 17.7668 134.073 13.9407 136.177 10.7459C138.282 7.532 141.276 5.06417 145.159 3.34242C149.062 1.60154 153.682 0.731101 159.019 0.731101C163.725 0.731101 167.915 1.47719 171.588 2.96937C175.28 4.46155 178.236 6.56591 180.455 9.28245C182.674 11.9799 183.965 15.146 184.329 18.7808L184.358 19.1251H170.182L170.153 18.8381C169.771 17.3077 169.082 15.9973 168.087 14.9068C167.111 13.8164 165.858 12.9938 164.328 12.439C162.817 11.8651 161.085 11.5781 159.134 11.5781C156.762 11.5781 154.715 12.0085 152.993 12.8694C151.271 13.7112 149.951 14.9355 149.033 16.5425C148.115 18.1303 147.656 20.0242 147.656 22.2242V22.2816C147.656 24.4817 148.115 26.3851 149.033 27.9921C149.951 29.5991 151.271 30.833 152.993 31.6939C154.715 32.5547 156.771 32.9852 159.163 32.9852C161.057 32.9852 162.759 32.7078 164.271 32.153C165.801 31.5791 167.073 30.7469 168.087 29.6565C169.101 28.5469 169.79 27.2173 170.153 25.6677L170.211 25.3521H184.386L184.329 25.7251C183.965 29.3791 182.665 32.5643 180.426 35.2808C178.207 37.9782 175.261 40.0826 171.588 41.5939C167.915 43.0861 163.725 43.8322 159.019 43.8322ZM190.602 43.4591C188.593 43.4591 186.938 42.847 185.637 41.6226C184.356 40.3982 183.715 38.8774 183.715 37.06C183.715 35.2426 184.365 33.7217 185.666 32.4973C186.967 31.2539 188.612 30.6321 190.602 30.6321C192.63 30.6321 194.284 31.2539 195.566 32.4973C196.867 33.7217 197.517 35.2426 197.517 37.06C197.517 38.8774 196.867 40.3982 195.566 41.6226C194.265 42.847 192.61 43.4591 190.602 43.4591ZM197.535 43L215.441 1.59197H229.559V12.1233H224.738L212.715 43H197.535ZM208.123 35.0226L211.825 25.8686H237.393L241.066 35.0226H208.123ZM236.991 43L224.968 12.1233V1.59197H234.237L252.143 43H236.991Z" fill="white"/>
</svg>
