<svg width="40" height="40" viewBox="0 0 40 40" fill="none" xmlns="http://www.w3.org/2000/svg">
<path fill-rule="evenodd" clip-rule="evenodd" d="M13.7299 2.70149C13.8833 1.16789 15.1738 0 16.715 0H23.2851C24.8263 0 26.1168 1.16788 26.2702 2.70149L26.4817 4.8169C26.5174 5.17326 26.742 5.48113 27.0632 5.63943C27.7013 5.95384 28.3153 6.30952 28.9019 6.70299C29.1997 6.90275 29.5791 6.94362 29.906 6.79612L31.8459 5.92066C33.2507 5.28667 34.9073 5.82033 35.678 7.1551L38.963 12.8449C39.7336 14.1797 39.3675 15.8813 38.116 16.7809L36.3869 18.0239C36.0963 18.2328 35.9419 18.5809 35.9653 18.938C35.9883 19.289 36 19.6431 36 20C36 20.3569 35.9883 20.711 35.9653 21.0621C35.9419 21.4192 36.0963 21.7673 36.3869 21.9762L38.116 23.2192C39.3675 24.1188 39.7336 25.8203 38.963 27.1551L35.678 32.8449C34.9073 34.1797 33.2507 34.7134 31.8459 34.0794L29.9059 33.2039C29.5791 33.0564 29.1996 33.0973 28.9018 33.297C28.3153 33.6905 27.7012 34.0462 27.0632 34.3606C26.742 34.5189 26.5174 34.8267 26.4817 35.1831L26.2702 37.2985C26.1168 38.8321 24.8263 40 23.2851 40H16.715C15.1738 40 13.8833 38.8321 13.7299 37.2985L13.5184 35.1831C13.4827 34.8267 13.2581 34.5189 12.9369 34.3606C12.2988 34.0462 11.6848 33.6905 11.0982 33.297C10.8004 33.0972 10.4209 33.0564 10.0941 33.2039L8.15411 34.0794C6.74929 34.7134 5.09262 34.1797 4.32199 32.8449L1.03696 27.1551C0.266332 25.8203 0.6325 24.1188 1.88396 23.2192L3.61318 21.9761C3.90377 21.7672 4.05812 21.4191 4.03472 21.062C4.01171 20.711 4.00003 20.3569 4.00003 20C4.00003 19.6432 4.01171 19.289 4.03472 18.938C4.05812 18.5809 3.90376 18.2328 3.61318 18.0239L1.88396 16.7809C0.632501 15.8813 0.26633 14.1797 1.03696 12.8449L4.32199 7.15509C5.09262 5.82033 6.74929 5.28667 8.15411 5.92065L10.094 6.79614C10.4209 6.94365 10.8004 6.90277 11.0982 6.70301C11.6847 6.30953 12.2988 5.95384 12.9369 5.63942C13.2581 5.48112 13.4827 5.17325 13.5184 4.81689L13.7299 2.70149ZM20 28C24.4183 28 28 24.4183 28 20C28 15.5817 24.4183 12 20 12C15.5818 12 12 15.5817 12 20C12 24.4183 15.5818 28 20 28Z" fill="#FE6110"/>
</svg>
