<svg width="32" height="40" viewBox="0 0 32 40" fill="none" xmlns="http://www.w3.org/2000/svg">
<path fill-rule="evenodd" clip-rule="evenodd" d="M6 12V10.4C6 4.74931 10.3863 0 16 0C21.6137 0 26 4.74931 26 10.4V12H28C30.2091 12 32 13.7909 32 16V36C32 38.2091 30.2091 40 28 40H4C1.79086 40 0 38.2091 0 36V16C0 13.7909 1.79086 12 4 12H6ZM10 10.4C10 6.7723 12.7771 4 16 4C19.2229 4 22 6.7723 22 10.4V12H10V10.4ZM16 22C17.1046 22 18 22.8954 18 24V28C18 29.1046 17.1046 30 16 30C14.8954 30 14 29.1046 14 28V24C14 22.8954 14.8954 22 16 22Z" fill="#FE6110"/>
</svg>
