<svg width="40" height="28" viewBox="0 0 40 28" fill="none" xmlns="http://www.w3.org/2000/svg">
<path fill-rule="evenodd" clip-rule="evenodd" d="M0.00012207 3.99988C0.00012207 1.79074 1.79098 -0.00012207 4.00012 -0.00012207H24.0001C26.2093 -0.00012207 28.0001 1.79074 28.0001 3.99988V23.9999C28.0001 26.209 26.2093 27.9999 24.0001 27.9999H4.00012C1.79098 27.9999 0.00012207 26.209 0.00012207 23.9999V3.99988ZM12.0001 11.9999H10.0001C8.89555 11.9999 8.00012 11.1044 8.00012 9.99988C8.00012 8.89531 8.89555 7.99988 10.0001 7.99988H12.0001C13.1047 7.99988 14.0001 8.89531 14.0001 9.99988C14.0001 11.1044 13.1047 11.9999 12.0001 11.9999Z" fill="#FE6110"/>
<path d="M40.0001 5.99988V21.9999C40.0001 23.648 38.1186 24.5887 36.8001 23.5999L32.8001 20.5999C32.2965 20.2222 32.0001 19.6294 32.0001 18.9999V8.99988C32.0001 8.37036 32.2965 7.77759 32.8001 7.39988L36.8001 4.39988C38.1186 3.41102 40.0001 4.35179 40.0001 5.99988Z" fill="#FE6110"/>
</svg>
